<?xml version="1.0" encoding="UTF-8" standalone="no"?>
<svg
   xmlns:ooo="http://xml.openoffice.org/svg/export"
   xmlns:dc="http://purl.org/dc/elements/1.1/"
   xmlns:cc="http://creativecommons.org/ns#"
   xmlns:rdf="http://www.w3.org/1999/02/22-rdf-syntax-ns#"
   xmlns:svg="http://www.w3.org/2000/svg"
   xmlns="http://www.w3.org/2000/svg"
   xmlns:sodipodi="http://sodipodi.sourceforge.net/DTD/sodipodi-0.dtd"
   xmlns:inkscape="http://www.inkscape.org/namespaces/inkscape"
   version="1.2"
   width="64"
   height="64"
   viewBox="0 0 1806.2223 1806.2223"
   preserveAspectRatio="xMidYMid"
   clip-path="url(#presentation_clip_path)"
   xml:space="preserve"
   id="svg2"
   inkscape:version="0.48.4 r9939"
   sodipodi:docname="128x128.svg"
   style="fill-rule:evenodd;stroke-width:28.22200012;stroke-linejoin:round"><metadata
     id="metadata98"><rdf:RDF><cc:Work
         rdf:about=""><dc:format>image/svg+xml</dc:format><dc:type
           rdf:resource="http://purl.org/dc/dcmitype/StillImage" /><dc:title></dc:title></cc:Work></rdf:RDF></metadata><sodipodi:namedview
     pagecolor="#ffffff"
     bordercolor="#666666"
     borderopacity="1"
     objecttolerance="10"
     gridtolerance="10"
     guidetolerance="10"
     inkscape:pageopacity="0"
     inkscape:pageshadow="2"
     inkscape:window-width="1847"
     inkscape:window-height="1056"
     id="namedview96"
     showgrid="false"
     inkscape:zoom="10.148731"
     inkscape:cx="33.02835"
     inkscape:cy="34.985781"
     inkscape:window-x="73"
     inkscape:window-y="24"
     inkscape:window-maximized="1"
     inkscape:current-layer="svg2" /><defs
     class="ClipPathGroup"
     id="defs4"><clipPath
       id="presentation_clip_path"
       clipPathUnits="userSpaceOnUse"><rect
         x="0"
         y="0"
         width="21000"
         height="29700"
         id="rect7" /></clipPath></defs><defs
     class="TextShapeIndex"
     id="defs9"><g
       ooo:slide="id1"
       ooo:id-list="id3 id4 id5 id6 id7 id8 id9 id10"
       id="g11" /></defs><defs
     class="EmbeddedBulletChars"
     id="defs13"><g
       id="bullet-char-template(57356)"
       transform="scale(4.8828125e-4,-4.8828125e-4)"><path
         d="M 580,1141 1163,571 580,0 -4,571 580,1141 z"
         id="path16"
         inkscape:connector-curvature="0" /></g><g
       id="bullet-char-template(57354)"
       transform="scale(4.8828125e-4,-4.8828125e-4)"><path
         d="m 8,1128 1129,0 L 1137,0 8,0 8,1128 z"
         id="path19"
         inkscape:connector-curvature="0" /></g><g
       id="bullet-char-template(10146)"
       transform="scale(4.8828125e-4,-4.8828125e-4)"><path
         d="M 174,0 602,739 174,1481 1456,739 174,0 z m 1184,739 -1049,607 350,-607 699,0 z"
         id="path22"
         inkscape:connector-curvature="0" /></g><g
       id="bullet-char-template(10132)"
       transform="scale(4.8828125e-4,-4.8828125e-4)"><path
         d="M 2015,739 1276,0 717,0 l 543,543 -1086,0 0,393 1086,0 -543,545 557,0 741,-742 z"
         id="path25"
         inkscape:connector-curvature="0" /></g><g
       id="bullet-char-template(10007)"
       transform="scale(4.8828125e-4,-4.8828125e-4)"><path
         d="m 0,-2 c -7,16 -16,29 -25,39 l 381,530 c -94,256 -141,385 -141,387 0,25 13,38 40,38 9,0 21,-2 34,-5 21,4 42,12 65,25 l 27,-13 111,-251 280,301 64,-25 24,25 c 21,-10 41,-24 62,-43 C 886,937 835,863 770,784 769,783 710,716 594,584 L 774,223 c 0,-27 -21,-55 -63,-84 l 16,-20 C 717,90 699,76 672,76 641,76 570,178 457,381 L 164,-76 c -22,-34 -53,-51 -92,-51 -42,0 -63,17 -64,51 -7,9 -10,24 -10,44 0,9 1,19 2,30 z"
         id="path28"
         inkscape:connector-curvature="0" /></g><g
       id="bullet-char-template(10004)"
       transform="scale(4.8828125e-4,-4.8828125e-4)"><path
         d="M 285,-33 C 182,-33 111,30 74,156 52,228 41,333 41,471 c 0,78 14,145 41,201 34,71 87,106 158,106 53,0 88,-31 106,-94 l 23,-176 c 8,-64 28,-97 59,-98 l 735,706 c 11,11 33,17 66,17 42,0 63,-15 63,-46 l 0,-122 c 0,-36 -10,-64 -30,-84 L 442,47 C 390,-6 338,-33 285,-33 z"
         id="path31"
         inkscape:connector-curvature="0" /></g><g
       id="bullet-char-template(9679)"
       transform="scale(4.8828125e-4,-4.8828125e-4)"><path
         d="M 813,0 C 632,0 489,54 383,161 276,268 223,411 223,592 c 0,181 53,324 160,431 106,107 249,161 430,161 179,0 323,-54 432,-161 108,-107 162,-251 162,-431 0,-180 -54,-324 -162,-431 C 1136,54 992,0 813,0 z"
         id="path34"
         inkscape:connector-curvature="0" /></g><g
       id="bullet-char-template(8226)"
       transform="scale(4.8828125e-4,-4.8828125e-4)"><path
         d="m 346,457 c -73,0 -137,26 -191,78 -54,51 -81,114 -81,188 0,73 27,136 81,188 54,52 118,78 191,78 73,0 134,-26 185,-79 51,-51 77,-114 77,-187 0,-75 -25,-137 -76,-188 -50,-52 -112,-78 -186,-78 z"
         id="path37"
         inkscape:connector-curvature="0" /></g><g
       id="bullet-char-template(8211)"
       transform="scale(4.8828125e-4,-4.8828125e-4)"><path
         d="m -4,459 1139,0 0,147 -1139,0 0,-147 z"
         id="path40"
         inkscape:connector-curvature="0" /></g></defs><defs
     class="TextEmbeddedBitmaps"
     id="defs42" /><g
     id="g44"
     transform="translate(0,-27893.777)"><g
       id="id2"
       class="Master_Slide"><g
         id="bg-id2"
         class="Background" /><g
         id="bo-id2"
         class="BackgroundObjects" /></g></g><g
     class="SlideGroup"
     id="g49"
     transform="matrix(0.09375884,0,0,0.09375884,-81.405273,-489.27696)"><g
       id="g51"><g
         id="id1"
         class="Slide"
         clip-path="url(#presentation_clip_path)"><g
           class="Page"
           id="g54"><g
             class="com.sun.star.drawing.ClosedBezierShape"
             id="g56"><g
               id="id3"><path
                 d="m 6821,10122 c 2076,3541 5531,-338 7950,174 1862,1645 308,5328 -537,7422 -1865,4623 -3270,4571 -3616,6163 2975,-378 7326,-6872 7692,-11588 216,-2788 -1345,-5655 -4312,-4849 -2137,582 -2909,2900 -7177,2678 z"
                 id="path59"
                 inkscape:connector-curvature="0"
                 style="fill:#808080;stroke:none" /></g></g><g
             class="com.sun.star.drawing.ClosedBezierShape"
             id="g61"><g
               id="id4"><path
                 d="M 7240,21940 C 7033,20396 5085,16288 4690,12935 3821,5557 9135,10839 10549,7587 9857,7275 8413,7259 7556,6997 6143,6564 1889,3937 2506,11619 c 260,3244 2084,9901 4734,10321 z"
                 id="path64"
                 inkscape:connector-curvature="0"
                 style="fill:#808080;stroke:none" /></g></g><g
             class="com.sun.star.drawing.ClosedBezierShape"
             id="g66"><g
               id="id5"><path
                 d="m 7047,9727 c 2076,3541 5531,-338 7950,174 1862,1645 308,5328 -537,7422 -1865,4623 -3270,4571 -3616,6163 2975,-378 7326,-6872 7692,-11588 216,-2788 -1345,-5655 -4312,-4849 -2137,582 -2909,2900 -7177,2678 z"
                 id="path69"
                 inkscape:connector-curvature="0"
                 style="fill:#111111;stroke:none" /></g></g><g
             class="com.sun.star.drawing.ClosedBezierShape"
             id="g71"><g
               id="id6"><path
                 d="M 7466,21545 C 7259,20001 5311,15893 4916,12540 4047,5162 9361,10444 10775,7192 10083,6880 8639,6864 7782,6602 6369,6169 2115,3542 2732,11224 c 260,3244 2084,9901 4734,10321 z"
                 id="path74"
                 inkscape:connector-curvature="0"
                 style="fill:#111111;stroke:none" /></g></g><g
             class="Group"
             id="g76"><g
               class="com.sun.star.drawing.ClosedBezierShape"
               id="g78"><g
                 id="id7"><path
                   d="m 10612,14492 c -202,2796 -80,2691 580,5174 140,526 184,664 -143,1028 -2235,-1161 -2900,-3946 -3258,-6202 0,-779 631,-1410 1410,-1410 780,0 1411,631 1411,1410 z"
                   id="path81"
                   inkscape:connector-curvature="0"
                   style="fill:#808080;stroke:none" /></g></g></g><g
             class="com.sun.star.drawing.OpenBezierShape"
             id="g83"><g
               id="id8" /></g><g
             class="Group"
             id="g86"><g
               class="com.sun.star.drawing.ClosedBezierShape"
               id="g88"><g
                 id="id9"><path
                   d="m 10217,14097 c -202,2796 -80,2691 580,5174 140,526 184,664 -143,1028 -2235,-1161 -2900,-3946 -3258,-6202 0,-779 631,-1410 1410,-1410 780,0 1411,631 1411,1410 z"
                   id="path91"
                   inkscape:connector-curvature="0"
                   style="fill:#111111;stroke:none" /></g></g></g><g
             class="com.sun.star.drawing.OpenBezierShape"
             id="g93"><g
               id="id10" /></g></g></g></g></g></svg>